<?xml version="1.0" standalone="no"?>
<!DOCTYPE svg PUBLIC "-//W3C//DTD SVG 20010904//EN"
 "http://www.w3.org/TR/2001/REC-SVG-20010904/DTD/svg10.dtd">
<svg version="1.0" xmlns="http://www.w3.org/2000/svg"
 width="512.000000pt" height="512.000000pt" viewBox="0 0 512.000000 512.000000"
 preserveAspectRatio="xMidYMid meet">
<metadata>
Created by potrace 1.11, written by Peter Selinger 2001-2013
</metadata>
<g transform="translate(0.000000,512.000000) scale(0.100000,-0.100000)"
fill="#000000" stroke="none">
<path d="M0 3418 l0 -1702 25 34 c14 19 25 37 25 41 0 4 6 14 12 21 23 24 54
72 83 128 16 30 43 73 60 95 32 41 38 53 75 140 11 27 28 57 37 67 18 21 36
49 57 94 8 17 22 37 31 44 9 8 28 34 41 59 44 82 75 134 133 221 31 46 58 89
61 95 13 26 65 111 71 115 4 3 17 25 30 49 22 43 23 57 29 325 5 293 20 -1077
20 -1902 l0 -393 25 -52 c17 -36 37 -60 67 -80 40 -26 48 -27 160 -27 108 0
118 2 128 21 11 19 47 24 41 5 -2 -5 3 -13 11 -17 7 -5 346 -7 753 -5 407 2
1071 0 1475 -4 792 -8 773 -9 828 43 34 31 57 86 56 132 0 22 -3 443 -6 935
-4 611 -10 911 -18 945 -14 65 -45 108 -95 137 l-40 22 -895 4 c-492 3 -930 5
-972 5 -72 0 -81 -2 -115 -30 -21 -16 -49 -45 -62 -64 l-23 -34 5 -310 c5
-329 7 -348 55 -398 52 -55 74 -61 232 -58 80 1 340 -1 578 -5 l432 -7 -2
-196 -3 -196 -480 -2 c-264 -1 -644 3 -845 10 l-365 12 2 445 c1 402 11 1572
14 1695 1 28 -2 106 -6 175 -8 139 -33 212 -83 250 -15 11 -32 24 -39 30 -7 5
-42 10 -79 10 -91 0 -77 9 19 12 61 2 78 6 82 19 3 9 15 27 26 40 32 36 112
156 154 229 14 25 38 63 53 86 15 22 37 56 49 75 13 19 30 57 39 84 9 28 22
57 30 65 34 40 103 153 99 161 -4 5 -443 9 -1040 9 l-1035 0 0 -1702z m1700
562 c0 -44 -25 -38 -55 13 -14 24 -25 47 -25 51 0 3 18 -3 40 -14 33 -17 40
-26 40 -50z m-98 -1770 c-44 -41 -98 -103 -121 -138 -26 -38 -71 -86 -117
-122 -68 -54 -80 -60 -122 -60 -60 0 -133 35 -194 92 -51 47 -56 64 -33 113
12 27 13 28 14 7 1 -12 7 -38 15 -56 17 -41 49 -53 156 -62 l79 -7 67 64 c36
35 85 92 108 125 25 37 74 88 123 128 45 36 85 71 90 78 5 8 9 -6 11 -37 l3
-49 -79 -76z m1388 -910 c22 -44 45 -60 87 -60 15 -1 39 -7 53 -15 14 -8 42
-14 62 -15 39 0 57 -15 39 -33 -5 -5 -34 -12 -64 -15 -41 -3 -63 1 -95 17 -23
12 -46 21 -52 21 -25 0 -70 45 -76 77 -13 69 15 84 46 23z m1284 -413 c-25
-32 -62 -59 -73 -52 -5 3 12 38 37 77 l47 72 3 -37 c2 -23 -3 -45 -14 -60z"/>
<path d="M2295 4333 c-67 -6 -113 -34 -157 -93 l-26 -35 -6 -292 c-3 -160 -3
-312 0 -338 9 -60 74 -136 132 -153 54 -16 516 -17 591 -1 59 13 111 45 137
85 25 37 43 225 44 441 0 170 -2 199 -21 247 -25 67 -73 111 -138 125 -46 10
-481 21 -556 14z m563 -487 c-19 -37 -138 -156 -156 -156 -10 0 -12 7 -7 27
11 46 59 107 110 140 54 36 75 31 53 -11z"/>
<path d="M3670 4320 c-69 -3 -136 -11 -150 -17 -33 -15 -84 -71 -98 -108 -8
-20 -13 -134 -14 -335 l-3 -305 27 -41 c27 -43 61 -71 111 -92 40 -17 628 -17
660 1 79 44 127 124 127 210 0 61 -5 69 -48 86 -32 13 -52 37 -52 61 0 15 49
4 71 -16 15 -13 17 -11 23 23 11 70 6 246 -10 331 -18 99 -49 153 -102 178
-66 31 -233 39 -542 24z m462 -187 c25 -15 138 -152 138 -168 0 -19 -61 2
-117 40 -36 25 -77 45 -91 45 -28 0 -117 -83 -145 -136 -41 -77 -66 -132 -73
-159 -10 -40 -46 -107 -83 -154 -17 -21 -31 -44 -31 -49 0 -18 -66 -82 -84
-82 -44 0 -27 50 39 120 56 58 105 153 105 203 0 37 30 109 50 122 6 4 21 27
34 53 13 26 41 63 61 82 20 19 45 50 56 68 18 28 26 32 66 32 25 0 58 -8 75
-17z"/>
<path d="M5088 1874 c-14 -27 -44 -77 -66 -110 -21 -32 -49 -79 -62 -104 -13
-25 -31 -56 -42 -70 -39 -51 -111 -166 -140 -225 -17 -33 -34 -62 -38 -65 -4
-3 -21 -31 -38 -63 -18 -32 -43 -73 -55 -90 -13 -18 -36 -59 -52 -92 -16 -33
-45 -85 -65 -115 -20 -30 -43 -67 -51 -83 -13 -26 -31 -54 -169 -272 -31 -49
-69 -112 -84 -138 -14 -26 -35 -60 -45 -75 -38 -54 -91 -139 -91 -145 0 -4
-32 -55 -71 -114 l-70 -108 582 -3 c320 -1 584 -1 586 1 2 2 2 435 1 963 l-3
959 -27 -51z"/>
</g>
</svg>
